# xmcd
#
# Track frame offsets:
#	180
#	8198
#	22301
#	32933
#	44518
#	57884
#	73391
#	86342
#	99831
#	113355
#	124994
#	133036
#	147247
#	158093
#	169668
#	183010
#	198180
#	211198
#	225005
#	238577
#
# Disc length: 3336 seconds
#
# Revision: 1
# Processed by: cddbd v1.5.2PL0 Copyright (c) Steve Scherf et al.
# Submitted via: audiograbber 1.83.01
#
DISCID=050d0614
DTITLE=Pocket Songs - You Sing the Hits of Elvis Presley
DYEAR=1900
DGENRE=Vocal
TTITLE0=Let me be your teddy bear (Guide Vocal)
TTITLE1=It's now or never (Guide Vocal)
TTITLE2=Stuck on You (Guide Vocal)
TTITLE3=One Night (Guide Vocal)
TTITLE4=Can't helf falling in love (Guide Vocal)
TTITLE5=Kentucky Rain (Guide Vocal)
TTITLE6=In the Ghetto (Guide Vocal)
TTITLE7=Moody Blue (Guide Vocal)
TTITLE8=If I Can Dream (Guide Vocal)
TTITLE9=The Wonder of You (Guide Vocal)
TTITLE10=Let me be your teddy bear (Background Track)
TTITLE11=It's now or never (Background Track)
TTITLE12=Stuck on You (Background Track)
TTITLE13=One Night (Background Track)
TTITLE14=Can't help falling in love (Background Track)
TTITLE15=Kentucky Rain (Background Track)
TTITLE16=In the Ghetto (Background Track)
TTITLE17=Moody Blue (Background Track)
TTITLE18=If I can Dream (Background Track)
TTITLE19=The Wonder of You (Background Track)
EXTD=
EXTT0=
EXTT1=
EXTT2=
EXTT3=
EXTT4=
EXTT5=
EXTT6=
EXTT7=
EXTT8=
EXTT9=
EXTT10=
EXTT11=
EXTT12=
EXTT13=
EXTT14=
EXTT15=
EXTT16=
EXTT17=
EXTT18=
EXTT19=
PLAYORDER=
